<?xml version="1.0" encoding="utf-8"?>
<!-- Generator: Adobe Illustrator 26.1.0, SVG Export Plug-In . SVG Version: 6.00 Build 0)  -->
<svg version="1.1" id="Layer_1" xmlns="http://www.w3.org/2000/svg" xmlns:xlink="http://www.w3.org/1999/xlink" x="0px" y="0px"
	 viewBox="0 0 1366 768" style="enable-background:new 0 0 1366 768;" xml:space="preserve">
<style type="text/css">
	.st0{clip-path:url(#SVGID_00000018222069989590401570000005124386647152392893_);}
	.st1{fill-opacity:0;}
	.st2{fill:none;stroke:#104990;stroke-width:4;stroke-linejoin:round;stroke-miterlimit:10;}
	.st3{fill:none;stroke:#104990;stroke-width:2;stroke-linejoin:round;stroke-miterlimit:10;}
	.st4{clip-path:url(#SVGID_00000054956302460208864960000001422421035859076031_);}
	.st5{clip-path:url(#SVGID_00000001625586363054963140000015904529871640009112_);}
	.st6{clip-path:url(#SVGID_00000078028800600822333670000016524572745703771059_);}
	.st7{clip-path:url(#SVGID_00000120518999737361245410000013280013965158812816_);}
	.st8{clip-path:url(#SVGID_00000083795386327986783920000006846690467668171671_);}
	.st9{clip-path:url(#SVGID_00000119104093004988216980000014985469848710848400_);}
	.st10{clip-path:url(#SVGID_00000063592827232555290680000000726414151151678337_);}
	.st11{clip-path:url(#SVGID_00000016762681564734090620000004551692132579295928_);}
	.st12{clip-path:url(#SVGID_00000004541019815284211900000017337536972849786510_);}
	.st13{clip-path:url(#SVGID_00000109734536310681051690000006350064293922298031_);}
	.st14{clip-path:url(#SVGID_00000165220607954664177690000015387864938815641223_);}
	.st15{clip-path:url(#SVGID_00000088101058092755780020000017954984541620278427_);}
	.st16{clip-path:url(#SVGID_00000030485768498758078170000013314449541129499301_);}
	.st17{clip-path:url(#SVGID_00000114069992865188675680000016819375358812382895_);}
	.st18{clip-path:url(#SVGID_00000024702012161712736470000003105607553978553497_);}
	.st19{clip-path:url(#SVGID_00000132081741960707161270000003678404950858817720_);}
	.st20{clip-path:url(#SVGID_00000116938186910118547860000011759596165055516602_);}
	.st21{clip-path:url(#SVGID_00000016058975899386513340000009519929780943107495_);}
	.st22{clip-path:url(#SVGID_00000097467846674861198590000000740093353421518244_);}
	.st23{clip-path:url(#SVGID_00000089570369762635027480000001128757298281126790_);}
	.st24{clip-path:url(#SVGID_00000024716345579990649760000006779614728423838376_);}
	.st25{clip-path:url(#SVGID_00000041296486303166861270000000753956561815378818_);}
	.st26{clip-path:url(#SVGID_00000157998840911031052780000003672737546905830578_);}
</style>
<g>
	<defs>
		<rect id="SVGID_1_" x="-8.82" y="-16.13" width="245.64" height="324.25"/>
	</defs>
	<clipPath id="SVGID_00000147902720071502047670000005039279472480624512_">
		<use xlink:href="#SVGID_1_"  style="overflow:visible;"/>
	</clipPath>
	<g style="clip-path:url(#SVGID_00000147902720071502047670000005039279472480624512_);">
		<path class="st1" d="M-8.82-16.13h245.74v324.67H-8.82V-16.13z"/>
		<path class="st1" d="M197.33,9.95c-16.44,6.07-92.2,9.85-98.63,36.4c-6.44,26.55,73.17,96.13,60.02,122.91
			c-13.15,26.78-124.51,15.96-138.92,37.76s43.68,77.5,52.41,93"/>
		<path class="st2" d="M197.33,9.95c-16.44,6.07-92.2,9.85-98.63,36.4c-6.44,26.55,73.17,96.13,60.02,122.91
			c-13.15,26.78-124.51,15.96-138.92,37.76s43.68,77.5,52.41,93"/>
		<path class="st1" d="M166.37,0.1c5.9,12.38,54.33,50.57,35.43,74.29S67.32,114.51,52.92,142.37s70.27,74.87,62.5,99.21
			S24.49,280.61,6.31,288.41"/>
		<path class="st2" d="M166.37,0.1c5.9,12.38,54.33,50.57,35.43,74.29S67.32,114.51,52.92,142.37s70.27,74.87,62.5,99.21
			S24.49,280.61,6.31,288.41"/>
		<path class="st1" d="M126.9,27.08l74.93,17.02"/>
		<path class="st3" d="M126.9,27.08l74.93,17.02"/>
		<path class="st1" d="M101.05,39.97l106.52,22.2"/>
		<path class="st3" d="M101.05,39.97l106.52,22.2"/>
		<path class="st1" d="M111.45,75.51l64.07,14.47"/>
		<path class="st3" d="M111.45,75.51l64.07,14.47"/>
		<path class="st1" d="M95.8,117.54l55.49,20.23"/>
		<path class="st3" d="M95.8,117.54l55.49,20.23"/>
		<path class="st1" d="M74,128.31l84.8,32.98"/>
		<path class="st3" d="M74,128.31l84.8,32.98"/>
		<path class="st1" d="M51.57,142.94l95.52,36.39"/>
		<path class="st3" d="M51.57,142.94l95.52,36.39"/>
		<path class="st1" d="M57.2,162.18l54.98,23.35"/>
		<path class="st3" d="M57.2,162.18l54.98,23.35"/>
		<path class="st1" d="M25.56,202.39l74.72,9.82"/>
		<path class="st3" d="M25.56,202.39l74.72,9.82"/>
		<path class="st1" d="M17.63,220.2l96.41,15.03"/>
		<path class="st3" d="M17.63,220.2l96.41,15.03"/>
		<path class="st1" d="M25.95,238.29l82.01,11.89"/>
		<path class="st3" d="M25.95,238.29l82.01,11.89"/>
		<path class="st1" d="M37.79,257.75l52.88,5.47"/>
		<path class="st3" d="M37.79,257.75l52.88,5.47"/>
		<path class="st1" d="M103.14,57.43l96.89,20.62"/>
		<path class="st3" d="M103.14,57.43l96.89,20.62"/>
	</g>
</g>
<g>
	<defs>
		<rect id="SVGID_00000124128662064329073310000002238087861053939332_" x="141.63" y="-16.33" width="245.64" height="324.25"/>
	</defs>
	<clipPath id="SVGID_00000005965046527597933940000004698846808163626658_">
		<use xlink:href="#SVGID_00000124128662064329073310000002238087861053939332_"  style="overflow:visible;"/>
	</clipPath>
	<g style="clip-path:url(#SVGID_00000005965046527597933940000004698846808163626658_);">
		<path class="st1" d="M141.63-16.33h245.74v324.67H141.63V-16.33z"/>
		<path class="st1" d="M347.78,9.75c-16.44,6.07-92.2,9.85-98.63,36.4c-6.44,26.55,73.17,96.13,60.02,122.91
			c-13.15,26.78-124.51,15.96-138.92,37.76s43.68,77.5,52.41,93"/>
		<path class="st2" d="M347.78,9.75c-16.44,6.07-92.2,9.85-98.63,36.4c-6.44,26.55,73.17,96.13,60.02,122.91
			c-13.15,26.78-124.51,15.96-138.92,37.76s43.68,77.5,52.41,93"/>
		<path class="st1" d="M316.82-0.1c5.9,12.38,54.33,50.57,35.43,74.29s-134.48,40.12-148.87,67.99
			c-14.4,27.87,70.27,74.87,62.5,99.21s-90.93,39.02-109.11,46.82"/>
		<path class="st2" d="M316.82-0.1c5.9,12.38,54.33,50.57,35.43,74.29s-134.48,40.12-148.87,67.99
			c-14.4,27.87,70.27,74.87,62.5,99.21s-90.93,39.02-109.11,46.82"/>
		<path class="st1" d="M277.35,26.88l74.93,17.02"/>
		<path class="st3" d="M277.35,26.88l74.93,17.02"/>
		<path class="st1" d="M251.51,39.76l106.52,22.2"/>
		<path class="st3" d="M251.51,39.76l106.52,22.2"/>
		<path class="st1" d="M261.91,75.31l64.07,14.47"/>
		<path class="st3" d="M261.91,75.31l64.07,14.47"/>
		<path class="st1" d="M246.25,117.34l55.49,20.23"/>
		<path class="st3" d="M246.25,117.34l55.49,20.23"/>
		<path class="st1" d="M224.45,128.1l84.8,32.98"/>
		<path class="st3" d="M224.45,128.1l84.8,32.98"/>
		<path class="st1" d="M202.02,142.74l95.52,36.39"/>
		<path class="st3" d="M202.02,142.74l95.52,36.39"/>
		<path class="st1" d="M207.65,161.98l54.98,23.35"/>
		<path class="st3" d="M207.65,161.98l54.98,23.35"/>
		<path class="st1" d="M176.02,202.19l74.72,9.82"/>
		<path class="st3" d="M176.02,202.19l74.72,9.82"/>
		<path class="st1" d="M168.08,220l96.41,15.03"/>
		<path class="st3" d="M168.08,220l96.41,15.03"/>
		<path class="st1" d="M176.4,238.08l82.01,11.89"/>
		<path class="st3" d="M176.4,238.08l82.01,11.89"/>
		<path class="st1" d="M188.25,257.54l52.88,5.47"/>
		<path class="st3" d="M188.25,257.54l52.88,5.47"/>
		<path class="st1" d="M253.59,57.23l96.89,20.62"/>
		<path class="st3" d="M253.59,57.23l96.89,20.62"/>
	</g>
</g>
<g>
	<defs>
		<rect id="SVGID_00000029755776343528426690000017463462180726009779_" x="308.63" y="-16.33" width="245.64" height="324.25"/>
	</defs>
	<clipPath id="SVGID_00000001665218506768703380000017260540856308323765_">
		<use xlink:href="#SVGID_00000029755776343528426690000017463462180726009779_"  style="overflow:visible;"/>
	</clipPath>
	<g style="clip-path:url(#SVGID_00000001665218506768703380000017260540856308323765_);">
		<path class="st1" d="M308.63-16.33h245.74v324.67H308.63V-16.33z"/>
		<path class="st1" d="M514.78,9.75c-16.44,6.07-92.2,9.85-98.63,36.4c-6.44,26.55,73.17,96.13,60.02,122.91
			c-13.15,26.78-124.51,15.96-138.92,37.76c-14.42,21.79,43.68,77.5,52.41,93"/>
		<path class="st2" d="M514.78,9.75c-16.44,6.07-92.2,9.85-98.63,36.4c-6.44,26.55,73.17,96.13,60.02,122.91
			c-13.15,26.78-124.51,15.96-138.92,37.76c-14.42,21.79,43.68,77.5,52.41,93"/>
		<path class="st1" d="M483.82-0.1c5.9,12.38,54.33,50.57,35.43,74.29c-18.91,23.71-134.48,40.12-148.87,67.99
			c-14.4,27.87,70.27,74.87,62.5,99.21s-90.93,39.02-109.11,46.82"/>
		<path class="st2" d="M483.82-0.1c5.9,12.38,54.33,50.57,35.43,74.29c-18.91,23.71-134.48,40.12-148.87,67.99
			c-14.4,27.87,70.27,74.87,62.5,99.21s-90.93,39.02-109.11,46.82"/>
		<path class="st1" d="M444.35,26.88l74.93,17.02"/>
		<path class="st3" d="M444.35,26.88l74.93,17.02"/>
		<path class="st1" d="M418.51,39.76l106.52,22.2"/>
		<path class="st3" d="M418.51,39.76l106.52,22.2"/>
		<path class="st1" d="M428.91,75.31l64.07,14.47"/>
		<path class="st3" d="M428.91,75.31l64.07,14.47"/>
		<path class="st1" d="M413.25,117.34l55.49,20.23"/>
		<path class="st3" d="M413.25,117.34l55.49,20.23"/>
		<path class="st1" d="M391.45,128.1l84.8,32.98"/>
		<path class="st3" d="M391.45,128.1l84.8,32.98"/>
		<path class="st1" d="M369.02,142.74l95.52,36.39"/>
		<path class="st3" d="M369.02,142.74l95.52,36.39"/>
		<path class="st1" d="M374.65,161.98l54.98,23.35"/>
		<path class="st3" d="M374.65,161.98l54.98,23.35"/>
		<path class="st1" d="M343.02,202.19l74.72,9.82"/>
		<path class="st3" d="M343.02,202.19l74.72,9.82"/>
		<path class="st1" d="M335.08,220l96.41,15.03"/>
		<path class="st3" d="M335.08,220l96.41,15.03"/>
		<path class="st1" d="M343.4,238.08l82.01,11.89"/>
		<path class="st3" d="M343.4,238.08l82.01,11.89"/>
		<path class="st1" d="M355.25,257.54l52.88,5.47"/>
		<path class="st3" d="M355.25,257.54l52.88,5.47"/>
		<path class="st1" d="M420.59,57.23l96.89,20.62"/>
		<path class="st3" d="M420.59,57.23l96.89,20.62"/>
	</g>
</g>
<g>
	<defs>
		<rect id="SVGID_00000006697824276403931280000016350621076670808736_" x="469.63" y="-16.33" width="245.64" height="324.25"/>
	</defs>
	<clipPath id="SVGID_00000095318297668585003110000003316548765629596810_">
		<use xlink:href="#SVGID_00000006697824276403931280000016350621076670808736_"  style="overflow:visible;"/>
	</clipPath>
	<g style="clip-path:url(#SVGID_00000095318297668585003110000003316548765629596810_);">
		<path class="st1" d="M469.63-16.33h245.74v324.67H469.63V-16.33z"/>
		<path class="st1" d="M675.78,9.75c-16.44,6.07-92.2,9.85-98.63,36.4c-6.44,26.55,73.17,96.13,60.02,122.91
			s-124.51,15.96-138.92,37.76c-14.42,21.79,43.68,77.5,52.41,93"/>
		<path class="st2" d="M675.78,9.75c-16.44,6.07-92.2,9.85-98.63,36.4c-6.44,26.55,73.17,96.13,60.02,122.91
			s-124.51,15.96-138.92,37.76c-14.42,21.79,43.68,77.5,52.41,93"/>
		<path class="st1" d="M644.82-0.1c5.9,12.38,54.33,50.57,35.43,74.29c-18.91,23.71-134.48,40.12-148.87,67.99
			s70.27,74.87,62.5,99.21s-90.93,39.02-109.11,46.82"/>
		<path class="st2" d="M644.82-0.1c5.9,12.38,54.33,50.57,35.43,74.29c-18.91,23.71-134.48,40.12-148.87,67.99
			s70.27,74.87,62.5,99.21s-90.93,39.02-109.11,46.82"/>
		<path class="st1" d="M605.35,26.88l74.93,17.02"/>
		<path class="st3" d="M605.35,26.88l74.93,17.02"/>
		<path class="st1" d="M579.51,39.76l106.52,22.2"/>
		<path class="st3" d="M579.51,39.76l106.52,22.2"/>
		<path class="st1" d="M589.91,75.31l64.07,14.47"/>
		<path class="st3" d="M589.91,75.31l64.07,14.47"/>
		<path class="st1" d="M574.25,117.34l55.49,20.23"/>
		<path class="st3" d="M574.25,117.34l55.49,20.23"/>
		<path class="st1" d="M552.45,128.1l84.8,32.98"/>
		<path class="st3" d="M552.45,128.1l84.8,32.98"/>
		<path class="st1" d="M530.02,142.74l95.52,36.39"/>
		<path class="st3" d="M530.02,142.74l95.52,36.39"/>
		<path class="st1" d="M535.65,161.98l54.98,23.35"/>
		<path class="st3" d="M535.65,161.98l54.98,23.35"/>
		<path class="st1" d="M504.02,202.19l74.72,9.82"/>
		<path class="st3" d="M504.02,202.19l74.72,9.82"/>
		<path class="st1" d="M496.08,220l96.41,15.03"/>
		<path class="st3" d="M496.08,220l96.41,15.03"/>
		<path class="st1" d="M504.4,238.08l82.01,11.89"/>
		<path class="st3" d="M504.4,238.08l82.01,11.89"/>
		<path class="st1" d="M516.25,257.54l52.88,5.47"/>
		<path class="st3" d="M516.25,257.54l52.88,5.47"/>
		<path class="st1" d="M581.59,57.23l96.89,20.62"/>
		<path class="st3" d="M581.59,57.23l96.89,20.62"/>
	</g>
</g>
<g>
	<defs>
		<rect id="SVGID_00000038407830682053317270000001650720188989187486_" x="625.63" y="-16.33" width="245.64" height="324.25"/>
	</defs>
	<clipPath id="SVGID_00000122707814329385394160000003227007739057233062_">
		<use xlink:href="#SVGID_00000038407830682053317270000001650720188989187486_"  style="overflow:visible;"/>
	</clipPath>
	<g style="clip-path:url(#SVGID_00000122707814329385394160000003227007739057233062_);">
		<path class="st1" d="M625.63-16.33h245.74v324.67H625.63V-16.33z"/>
		<path class="st1" d="M831.78,9.75c-16.44,6.07-92.2,9.85-98.63,36.4c-6.44,26.55,73.17,96.13,60.02,122.91
			s-124.51,15.96-138.92,37.76c-14.42,21.79,43.68,77.5,52.41,93"/>
		<path class="st2" d="M831.78,9.75c-16.44,6.07-92.2,9.85-98.63,36.4c-6.44,26.55,73.17,96.13,60.02,122.91
			s-124.51,15.96-138.92,37.76c-14.42,21.79,43.68,77.5,52.41,93"/>
		<path class="st1" d="M800.82-0.1c5.9,12.38,54.33,50.57,35.43,74.29c-18.91,23.71-134.48,40.12-148.87,67.99
			s70.27,74.87,62.5,99.21s-90.93,39.02-109.11,46.82"/>
		<path class="st2" d="M800.82-0.1c5.9,12.38,54.33,50.57,35.43,74.29c-18.91,23.71-134.48,40.12-148.87,67.99
			s70.27,74.87,62.5,99.21s-90.93,39.02-109.11,46.82"/>
		<path class="st1" d="M761.35,26.88l74.93,17.02"/>
		<path class="st3" d="M761.35,26.88l74.93,17.02"/>
		<path class="st1" d="M735.51,39.76l106.52,22.2"/>
		<path class="st3" d="M735.51,39.76l106.52,22.2"/>
		<path class="st1" d="M745.91,75.31l64.07,14.47"/>
		<path class="st3" d="M745.91,75.31l64.07,14.47"/>
		<path class="st1" d="M730.25,117.34l55.49,20.23"/>
		<path class="st3" d="M730.25,117.34l55.49,20.23"/>
		<path class="st1" d="M708.45,128.1l84.8,32.98"/>
		<path class="st3" d="M708.45,128.1l84.8,32.98"/>
		<path class="st1" d="M686.02,142.74l95.52,36.39"/>
		<path class="st3" d="M686.02,142.74l95.52,36.39"/>
		<path class="st1" d="M691.65,161.98l54.98,23.35"/>
		<path class="st3" d="M691.65,161.98l54.98,23.35"/>
		<path class="st1" d="M660.02,202.19l74.72,9.82"/>
		<path class="st3" d="M660.02,202.19l74.72,9.82"/>
		<path class="st1" d="M652.08,220l96.41,15.03"/>
		<path class="st3" d="M652.08,220l96.41,15.03"/>
		<path class="st1" d="M660.4,238.08l82.01,11.89"/>
		<path class="st3" d="M660.4,238.08l82.01,11.89"/>
		<path class="st1" d="M672.25,257.54l52.88,5.47"/>
		<path class="st3" d="M672.25,257.54l52.88,5.47"/>
		<path class="st1" d="M737.59,57.23l96.89,20.62"/>
		<path class="st3" d="M737.59,57.23l96.89,20.62"/>
	</g>
</g>
<g>
	<defs>
		<rect id="SVGID_00000177486055369180465080000003128078541093042324_" x="797.63" y="-16.33" width="245.64" height="324.25"/>
	</defs>
	<clipPath id="SVGID_00000038402772790809177050000001334201103227674805_">
		<use xlink:href="#SVGID_00000177486055369180465080000003128078541093042324_"  style="overflow:visible;"/>
	</clipPath>
	<g style="clip-path:url(#SVGID_00000038402772790809177050000001334201103227674805_);">
		<path class="st1" d="M797.63-16.33h245.74v324.67H797.63V-16.33z"/>
		<path class="st1" d="M1003.78,9.75c-16.44,6.07-92.2,9.85-98.63,36.4c-6.44,26.55,73.17,96.13,60.02,122.91
			s-124.51,15.96-138.92,37.76c-14.42,21.79,43.68,77.5,52.41,93"/>
		<path class="st2" d="M1003.78,9.75c-16.44,6.07-92.2,9.85-98.63,36.4c-6.44,26.55,73.17,96.13,60.02,122.91
			s-124.51,15.96-138.92,37.76c-14.42,21.79,43.68,77.5,52.41,93"/>
		<path class="st1" d="M972.82-0.1c5.9,12.38,54.33,50.57,35.43,74.29c-18.91,23.71-134.48,40.12-148.87,67.99
			s70.27,74.87,62.5,99.21s-90.93,39.02-109.11,46.82"/>
		<path class="st2" d="M972.82-0.1c5.9,12.38,54.33,50.57,35.43,74.29c-18.91,23.71-134.48,40.12-148.87,67.99
			s70.27,74.87,62.5,99.21s-90.93,39.02-109.11,46.82"/>
		<path class="st1" d="M933.35,26.88l74.93,17.02"/>
		<path class="st3" d="M933.35,26.88l74.93,17.02"/>
		<path class="st1" d="M907.51,39.76l106.52,22.2"/>
		<path class="st3" d="M907.51,39.76l106.52,22.2"/>
		<path class="st1" d="M917.91,75.31l64.07,14.47"/>
		<path class="st3" d="M917.91,75.31l64.07,14.47"/>
		<path class="st1" d="M902.25,117.34l55.49,20.23"/>
		<path class="st3" d="M902.25,117.34l55.49,20.23"/>
		<path class="st1" d="M880.45,128.1l84.8,32.98"/>
		<path class="st3" d="M880.45,128.1l84.8,32.98"/>
		<path class="st1" d="M858.02,142.74l95.52,36.39"/>
		<path class="st3" d="M858.02,142.74l95.52,36.39"/>
		<path class="st1" d="M863.65,161.98l54.98,23.35"/>
		<path class="st3" d="M863.65,161.98l54.98,23.35"/>
		<path class="st1" d="M832.02,202.19l74.72,9.82"/>
		<path class="st3" d="M832.02,202.19l74.72,9.82"/>
		<path class="st1" d="M824.08,220l96.41,15.03"/>
		<path class="st3" d="M824.08,220l96.41,15.03"/>
		<path class="st1" d="M832.4,238.08l82.01,11.89"/>
		<path class="st3" d="M832.4,238.08l82.01,11.89"/>
		<path class="st1" d="M844.25,257.54l52.88,5.47"/>
		<path class="st3" d="M844.25,257.54l52.88,5.47"/>
		<path class="st1" d="M909.59,57.23l96.89,20.62"/>
		<path class="st3" d="M909.59,57.23l96.89,20.62"/>
	</g>
</g>
<g>
	<defs>
		<rect id="SVGID_00000181805112560892849020000006100768960436237714_" x="977.63" y="-16.33" width="245.64" height="324.25"/>
	</defs>
	<clipPath id="SVGID_00000035520409270866740680000007973215606775102121_">
		<use xlink:href="#SVGID_00000181805112560892849020000006100768960436237714_"  style="overflow:visible;"/>
	</clipPath>
	<g style="clip-path:url(#SVGID_00000035520409270866740680000007973215606775102121_);">
		<path class="st1" d="M977.63-16.33h245.74v324.67H977.63V-16.33z"/>
		<path class="st1" d="M1183.78,9.75c-16.44,6.07-92.2,9.85-98.63,36.4c-6.44,26.55,73.17,96.13,60.02,122.91
			c-13.15,26.78-124.5,15.96-138.92,37.76c-14.42,21.79,43.68,77.5,52.41,93"/>
		<path class="st2" d="M1183.78,9.75c-16.44,6.07-92.2,9.85-98.63,36.4c-6.44,26.55,73.17,96.13,60.02,122.91
			c-13.15,26.78-124.5,15.96-138.92,37.76c-14.42,21.79,43.68,77.5,52.41,93"/>
		<path class="st1" d="M1152.82-0.1c5.9,12.38,54.33,50.57,35.43,74.29c-18.91,23.71-134.48,40.12-148.87,67.99
			c-14.4,27.87,70.27,74.87,62.5,99.21s-90.93,39.02-109.11,46.82"/>
		<path class="st2" d="M1152.82-0.1c5.9,12.38,54.33,50.57,35.43,74.29c-18.91,23.71-134.48,40.12-148.87,67.99
			c-14.4,27.87,70.27,74.87,62.5,99.21s-90.93,39.02-109.11,46.82"/>
		<path class="st1" d="M1113.35,26.88l74.93,17.02"/>
		<path class="st3" d="M1113.35,26.88l74.93,17.02"/>
		<path class="st1" d="M1087.51,39.76l106.52,22.2"/>
		<path class="st3" d="M1087.51,39.76l106.52,22.2"/>
		<path class="st1" d="M1097.91,75.31l64.07,14.47"/>
		<path class="st3" d="M1097.91,75.31l64.07,14.47"/>
		<path class="st1" d="M1082.25,117.34l55.49,20.23"/>
		<path class="st3" d="M1082.25,117.34l55.49,20.23"/>
		<path class="st1" d="M1060.45,128.1l84.8,32.98"/>
		<path class="st3" d="M1060.45,128.1l84.8,32.98"/>
		<path class="st1" d="M1038.02,142.74l95.52,36.39"/>
		<path class="st3" d="M1038.02,142.74l95.52,36.39"/>
		<path class="st1" d="M1043.65,161.98l54.98,23.35"/>
		<path class="st3" d="M1043.65,161.98l54.98,23.35"/>
		<path class="st1" d="M1012.02,202.19l74.72,9.82"/>
		<path class="st3" d="M1012.02,202.19l74.72,9.82"/>
		<path class="st1" d="M1004.08,220l96.41,15.03"/>
		<path class="st3" d="M1004.08,220l96.41,15.03"/>
		<path class="st1" d="M1012.4,238.08l82.01,11.89"/>
		<path class="st3" d="M1012.4,238.08l82.01,11.89"/>
		<path class="st1" d="M1024.25,257.54l52.88,5.47"/>
		<path class="st3" d="M1024.25,257.54l52.88,5.47"/>
		<path class="st1" d="M1089.59,57.23l96.89,20.62"/>
		<path class="st3" d="M1089.59,57.23l96.89,20.62"/>
	</g>
</g>
<g>
	<defs>
		<rect id="SVGID_00000070084422738429092190000005946171280653598848_" x="1144.63" y="-16.33" width="245.64" height="324.25"/>
	</defs>
	<clipPath id="SVGID_00000011014421599343375290000011158368458074157198_">
		<use xlink:href="#SVGID_00000070084422738429092190000005946171280653598848_"  style="overflow:visible;"/>
	</clipPath>
	<g style="clip-path:url(#SVGID_00000011014421599343375290000011158368458074157198_);">
		<path class="st1" d="M1144.63-16.33h245.74v324.67h-245.74V-16.33z"/>
		<path class="st1" d="M1350.78,9.75c-16.44,6.07-92.2,9.85-98.63,36.4c-6.44,26.55,73.17,96.13,60.02,122.91
			c-13.15,26.78-124.51,15.96-138.92,37.76s43.68,77.5,52.41,93"/>
		<path class="st2" d="M1350.78,9.75c-16.44,6.07-92.2,9.85-98.63,36.4c-6.44,26.55,73.17,96.13,60.02,122.91
			c-13.15,26.78-124.51,15.96-138.92,37.76s43.68,77.5,52.41,93"/>
		<path class="st1" d="M1319.82-0.1c5.9,12.38,54.33,50.57,35.43,74.29c-18.91,23.71-134.48,40.12-148.87,67.99
			c-14.4,27.87,70.27,74.87,62.5,99.21s-90.93,39.02-109.11,46.82"/>
		<path class="st2" d="M1319.82-0.1c5.9,12.38,54.33,50.57,35.43,74.29c-18.91,23.71-134.48,40.12-148.87,67.99
			c-14.4,27.87,70.27,74.87,62.5,99.21s-90.93,39.02-109.11,46.82"/>
		<path class="st1" d="M1280.35,26.88l74.93,17.02"/>
		<path class="st3" d="M1280.35,26.88l74.93,17.02"/>
		<path class="st1" d="M1254.51,39.76l106.52,22.2"/>
		<path class="st3" d="M1254.51,39.76l106.52,22.2"/>
		<path class="st1" d="M1264.91,75.31l64.07,14.47"/>
		<path class="st3" d="M1264.91,75.31l64.07,14.47"/>
		<path class="st1" d="M1249.25,117.34l55.49,20.23"/>
		<path class="st3" d="M1249.25,117.34l55.49,20.23"/>
		<path class="st1" d="M1227.45,128.1l84.8,32.98"/>
		<path class="st3" d="M1227.45,128.1l84.8,32.98"/>
		<path class="st1" d="M1205.02,142.74l95.52,36.39"/>
		<path class="st3" d="M1205.02,142.74l95.52,36.39"/>
		<path class="st1" d="M1210.65,161.98l54.98,23.35"/>
		<path class="st3" d="M1210.65,161.98l54.98,23.35"/>
		<path class="st1" d="M1179.02,202.19l74.72,9.82"/>
		<path class="st3" d="M1179.02,202.19l74.72,9.82"/>
		<path class="st1" d="M1171.08,220l96.41,15.03"/>
		<path class="st3" d="M1171.08,220l96.41,15.03"/>
		<path class="st1" d="M1179.4,238.08l82.01,11.89"/>
		<path class="st3" d="M1179.4,238.08l82.01,11.89"/>
		<path class="st1" d="M1191.25,257.54l52.88,5.47"/>
		<path class="st3" d="M1191.25,257.54l52.88,5.47"/>
		<path class="st1" d="M1256.59,57.23l96.89,20.62"/>
		<path class="st3" d="M1256.59,57.23l96.89,20.62"/>
	</g>
</g>
<g>
	<defs>
		<rect id="SVGID_00000137127078813148992390000014971833028153039007_" x="-31.09" y="257.77" width="245.64" height="324.25"/>
	</defs>
	<clipPath id="SVGID_00000183931652619621736290000005095507890132196275_">
		<use xlink:href="#SVGID_00000137127078813148992390000014971833028153039007_"  style="overflow:visible;"/>
	</clipPath>
	<g style="clip-path:url(#SVGID_00000183931652619621736290000005095507890132196275_);">
		<path class="st1" d="M-31.09,257.77h245.74v324.67H-31.09V257.77z"/>
		<path class="st1" d="M175.05,283.85c-16.44,6.07-92.2,9.85-98.63,36.4c-6.44,26.55,73.17,96.13,60.02,122.91
			c-13.15,26.78-124.51,15.96-138.92,37.76s43.68,77.5,52.41,93"/>
		<path class="st2" d="M175.05,283.85c-16.44,6.07-92.2,9.85-98.63,36.4c-6.44,26.55,73.17,96.13,60.02,122.91
			c-13.15,26.78-124.51,15.96-138.92,37.76s43.68,77.5,52.41,93"/>
		<path class="st1" d="M144.1,274c5.9,12.38,54.33,50.57,35.43,74.29C160.61,372,45.04,388.41,30.65,416.27
			c-14.4,27.87,70.27,74.87,62.5,99.21c-7.77,24.34-90.93,39.02-109.11,46.82"/>
		<path class="st2" d="M144.1,274c5.9,12.38,54.33,50.57,35.43,74.29C160.61,372,45.04,388.41,30.65,416.27
			c-14.4,27.87,70.27,74.87,62.5,99.21c-7.77,24.34-90.93,39.02-109.11,46.82"/>
		<path class="st1" d="M104.63,300.98L179.55,318"/>
		<path class="st3" d="M104.63,300.98L179.55,318"/>
		<path class="st1" d="M78.78,313.87l106.52,22.2"/>
		<path class="st3" d="M78.78,313.87l106.52,22.2"/>
		<path class="st1" d="M89.18,349.41l64.07,14.47"/>
		<path class="st3" d="M89.18,349.41l64.07,14.47"/>
		<path class="st1" d="M73.53,391.44l55.49,20.23"/>
		<path class="st3" d="M73.53,391.44l55.49,20.23"/>
		<path class="st1" d="M51.73,402.21l84.8,32.98"/>
		<path class="st3" d="M51.73,402.21l84.8,32.98"/>
		<path class="st1" d="M29.3,416.84l95.52,36.39"/>
		<path class="st3" d="M29.3,416.84l95.52,36.39"/>
		<path class="st1" d="M34.92,436.08l54.98,23.35"/>
		<path class="st3" d="M34.92,436.08l54.98,23.35"/>
		<path class="st1" d="M3.29,476.29l74.72,9.82"/>
		<path class="st3" d="M3.29,476.29l74.72,9.82"/>
		<path class="st1" d="M-4.64,494.1l96.41,15.03"/>
		<path class="st3" d="M-4.64,494.1l96.41,15.03"/>
		<path class="st1" d="M3.67,512.18l82.01,11.89"/>
		<path class="st3" d="M3.67,512.18l82.01,11.89"/>
		<path class="st1" d="M15.52,531.65l52.88,5.47"/>
		<path class="st3" d="M15.52,531.65l52.88,5.47"/>
		<path class="st1" d="M80.87,331.33l96.89,20.62"/>
		<path class="st3" d="M80.87,331.33l96.89,20.62"/>
	</g>
</g>
<g>
	<defs>
		<rect id="SVGID_00000137836246354523460750000017862995366184063675_" x="127.36" y="259.57" width="245.64" height="324.25"/>
	</defs>
	<clipPath id="SVGID_00000178171077934032987710000017600607359128366251_">
		<use xlink:href="#SVGID_00000137836246354523460750000017862995366184063675_"  style="overflow:visible;"/>
	</clipPath>
	<g style="clip-path:url(#SVGID_00000178171077934032987710000017600607359128366251_);">
		<path class="st1" d="M127.36,259.57h245.74v324.67H127.36V259.57z"/>
		<path class="st1" d="M333.5,285.65c-16.44,6.07-92.2,9.85-98.63,36.4s73.17,96.13,60.02,122.91
			c-13.15,26.78-124.51,15.96-138.92,37.76c-14.42,21.79,43.68,77.5,52.41,93"/>
		<path class="st2" d="M333.5,285.65c-16.44,6.07-92.2,9.85-98.63,36.4s73.17,96.13,60.02,122.91
			c-13.15,26.78-124.51,15.96-138.92,37.76c-14.42,21.79,43.68,77.5,52.41,93"/>
		<path class="st1" d="M302.55,275.79c5.9,12.38,54.33,50.57,35.43,74.29S203.5,390.2,189.1,418.07
			c-14.4,27.87,70.27,74.87,62.5,99.21c-7.77,24.34-90.93,39.02-109.11,46.82"/>
		<path class="st2" d="M302.55,275.79c5.9,12.38,54.33,50.57,35.43,74.29S203.5,390.2,189.1,418.07
			c-14.4,27.87,70.27,74.87,62.5,99.21c-7.77,24.34-90.93,39.02-109.11,46.82"/>
		<path class="st1" d="M263.08,302.78L338,319.8"/>
		<path class="st3" d="M263.08,302.78L338,319.8"/>
		<path class="st1" d="M237.23,315.66l106.52,22.2"/>
		<path class="st3" d="M237.23,315.66l106.52,22.2"/>
		<path class="st1" d="M247.63,351.21l64.07,14.47"/>
		<path class="st3" d="M247.63,351.21l64.07,14.47"/>
		<path class="st1" d="M231.98,393.23l55.49,20.23"/>
		<path class="st3" d="M231.98,393.23l55.49,20.23"/>
		<path class="st1" d="M210.18,404l84.8,32.98"/>
		<path class="st3" d="M210.18,404l84.8,32.98"/>
		<path class="st1" d="M187.75,418.64l95.52,36.39"/>
		<path class="st3" d="M187.75,418.64l95.52,36.39"/>
		<path class="st1" d="M193.37,437.88l54.98,23.35"/>
		<path class="st3" d="M193.37,437.88l54.98,23.35"/>
		<path class="st1" d="M161.74,478.09l74.72,9.82"/>
		<path class="st3" d="M161.74,478.09l74.72,9.82"/>
		<path class="st1" d="M153.81,495.9l96.41,15.03"/>
		<path class="st3" d="M153.81,495.9l96.41,15.03"/>
		<path class="st1" d="M162.12,513.98l82.01,11.89"/>
		<path class="st3" d="M162.12,513.98l82.01,11.89"/>
		<path class="st1" d="M173.97,533.44l52.88,5.47"/>
		<path class="st3" d="M173.97,533.44l52.88,5.47"/>
		<path class="st1" d="M239.32,333.12l96.89,20.62"/>
		<path class="st3" d="M239.32,333.12l96.89,20.62"/>
	</g>
</g>
<g>
	<defs>
		<rect id="SVGID_00000111171971382224568960000008279724820403533220_" x="294.36" y="257.57" width="245.64" height="324.25"/>
	</defs>
	<clipPath id="SVGID_00000018200187151231334990000012872148900520471976_">
		<use xlink:href="#SVGID_00000111171971382224568960000008279724820403533220_"  style="overflow:visible;"/>
	</clipPath>
	<g style="clip-path:url(#SVGID_00000018200187151231334990000012872148900520471976_);">
		<path class="st1" d="M294.36,257.57h245.74v324.67H294.36V257.57z"/>
		<path class="st1" d="M500.5,283.65c-16.44,6.07-92.2,9.85-98.63,36.4s73.17,96.13,60.02,122.91
			c-13.15,26.78-124.51,15.96-138.92,37.76c-14.42,21.79,43.68,77.5,52.41,93"/>
		<path class="st2" d="M500.5,283.65c-16.44,6.07-92.2,9.85-98.63,36.4s73.17,96.13,60.02,122.91
			c-13.15,26.78-124.51,15.96-138.92,37.76c-14.42,21.79,43.68,77.5,52.41,93"/>
		<path class="st1" d="M469.55,273.79c5.9,12.38,54.33,50.57,35.43,74.29c-18.91,23.71-134.48,40.12-148.87,67.99
			c-14.4,27.87,70.27,74.87,62.5,99.21c-7.77,24.34-90.93,39.02-109.11,46.82"/>
		<path class="st2" d="M469.55,273.79c5.9,12.38,54.33,50.57,35.43,74.29c-18.91,23.71-134.48,40.12-148.87,67.99
			c-14.4,27.87,70.27,74.87,62.5,99.21c-7.77,24.34-90.93,39.02-109.11,46.82"/>
		<path class="st1" d="M430.08,300.78L505,317.8"/>
		<path class="st3" d="M430.08,300.78L505,317.8"/>
		<path class="st1" d="M404.23,313.66l106.52,22.2"/>
		<path class="st3" d="M404.23,313.66l106.52,22.2"/>
		<path class="st1" d="M414.63,349.21l64.07,14.47"/>
		<path class="st3" d="M414.63,349.21l64.07,14.47"/>
		<path class="st1" d="M398.98,391.23l55.49,20.23"/>
		<path class="st3" d="M398.98,391.23l55.49,20.23"/>
		<path class="st1" d="M377.18,402l84.8,32.98"/>
		<path class="st3" d="M377.18,402l84.8,32.98"/>
		<path class="st1" d="M354.75,416.64l95.52,36.39"/>
		<path class="st3" d="M354.75,416.64l95.52,36.39"/>
		<path class="st1" d="M360.37,435.88l54.98,23.35"/>
		<path class="st3" d="M360.37,435.88l54.98,23.35"/>
		<path class="st1" d="M328.74,476.09l74.72,9.82"/>
		<path class="st3" d="M328.74,476.09l74.72,9.82"/>
		<path class="st1" d="M320.81,493.9l96.41,15.03"/>
		<path class="st3" d="M320.81,493.9l96.41,15.03"/>
		<path class="st1" d="M329.12,511.98l82.01,11.89"/>
		<path class="st3" d="M329.12,511.98l82.01,11.89"/>
		<path class="st1" d="M340.97,531.44l52.88,5.47"/>
		<path class="st3" d="M340.97,531.44l52.88,5.47"/>
		<path class="st1" d="M406.32,331.12l96.89,20.62"/>
		<path class="st3" d="M406.32,331.12l96.89,20.62"/>
	</g>
</g>
<g>
	<defs>
		<rect id="SVGID_00000044136154535462129440000018191190209020368539_" x="455.36" y="259.57" width="245.64" height="324.25"/>
	</defs>
	<clipPath id="SVGID_00000016793027375051622340000006084064640786984592_">
		<use xlink:href="#SVGID_00000044136154535462129440000018191190209020368539_"  style="overflow:visible;"/>
	</clipPath>
	<g style="clip-path:url(#SVGID_00000016793027375051622340000006084064640786984592_);">
		<path class="st1" d="M455.36,259.57h245.74v324.67H455.36V259.57z"/>
		<path class="st1" d="M661.5,285.65c-16.44,6.07-92.2,9.85-98.63,36.4s73.17,96.13,60.02,122.91
			c-13.15,26.78-124.5,15.96-138.92,37.76c-14.42,21.79,43.68,77.5,52.41,93"/>
		<path class="st2" d="M661.5,285.65c-16.44,6.07-92.2,9.85-98.63,36.4s73.17,96.13,60.02,122.91
			c-13.15,26.78-124.5,15.96-138.92,37.76c-14.42,21.79,43.68,77.5,52.41,93"/>
		<path class="st1" d="M630.55,275.79c5.9,12.38,54.33,50.57,35.43,74.29c-18.91,23.71-134.48,40.12-148.87,67.99
			c-14.4,27.87,70.27,74.87,62.5,99.21c-7.77,24.34-90.93,39.02-109.11,46.82"/>
		<path class="st2" d="M630.55,275.79c5.9,12.38,54.33,50.57,35.43,74.29c-18.91,23.71-134.48,40.12-148.87,67.99
			c-14.4,27.87,70.27,74.87,62.5,99.21c-7.77,24.34-90.93,39.02-109.11,46.82"/>
		<path class="st1" d="M591.08,302.78L666,319.8"/>
		<path class="st3" d="M591.08,302.78L666,319.8"/>
		<path class="st1" d="M565.23,315.66l106.52,22.2"/>
		<path class="st3" d="M565.23,315.66l106.52,22.2"/>
		<path class="st1" d="M575.63,351.21l64.07,14.47"/>
		<path class="st3" d="M575.63,351.21l64.07,14.47"/>
		<path class="st1" d="M559.98,393.23l55.49,20.23"/>
		<path class="st3" d="M559.98,393.23l55.49,20.23"/>
		<path class="st1" d="M538.18,404l84.8,32.98"/>
		<path class="st3" d="M538.18,404l84.8,32.98"/>
		<path class="st1" d="M515.75,418.64l95.52,36.39"/>
		<path class="st3" d="M515.75,418.64l95.52,36.39"/>
		<path class="st1" d="M521.37,437.88l54.98,23.35"/>
		<path class="st3" d="M521.37,437.88l54.98,23.35"/>
		<path class="st1" d="M489.74,478.09l74.72,9.82"/>
		<path class="st3" d="M489.74,478.09l74.72,9.82"/>
		<path class="st1" d="M481.81,495.9l96.41,15.03"/>
		<path class="st3" d="M481.81,495.9l96.41,15.03"/>
		<path class="st1" d="M490.12,513.98l82.01,11.89"/>
		<path class="st3" d="M490.12,513.98l82.01,11.89"/>
		<path class="st1" d="M501.97,533.44l52.88,5.47"/>
		<path class="st3" d="M501.97,533.44l52.88,5.47"/>
		<path class="st1" d="M567.32,333.12l96.89,20.62"/>
		<path class="st3" d="M567.32,333.12l96.89,20.62"/>
	</g>
</g>
<g>
	<defs>
		<rect id="SVGID_00000168096744879107715170000010561286424338714772_" x="611.36" y="259.57" width="245.64" height="324.25"/>
	</defs>
	<clipPath id="SVGID_00000035498940119541654090000011976994405059188140_">
		<use xlink:href="#SVGID_00000168096744879107715170000010561286424338714772_"  style="overflow:visible;"/>
	</clipPath>
	<g style="clip-path:url(#SVGID_00000035498940119541654090000011976994405059188140_);">
		<path class="st1" d="M611.36,259.57h245.74v324.67H611.36V259.57z"/>
		<path class="st1" d="M817.5,285.65c-16.44,6.07-92.2,9.85-98.63,36.4s73.17,96.13,60.02,122.91
			c-13.15,26.78-124.51,15.96-138.92,37.76c-14.42,21.79,43.68,77.5,52.41,93"/>
		<path class="st2" d="M817.5,285.65c-16.44,6.07-92.2,9.85-98.63,36.4s73.17,96.13,60.02,122.91
			c-13.15,26.78-124.51,15.96-138.92,37.76c-14.42,21.79,43.68,77.5,52.41,93"/>
		<path class="st1" d="M786.55,275.79c5.9,12.38,54.33,50.57,35.43,74.29c-18.91,23.71-134.48,40.12-148.87,67.99
			c-14.4,27.87,70.27,74.87,62.5,99.21c-7.77,24.34-90.93,39.02-109.11,46.82"/>
		<path class="st2" d="M786.55,275.79c5.9,12.38,54.33,50.57,35.43,74.29c-18.91,23.71-134.48,40.12-148.87,67.99
			c-14.4,27.87,70.27,74.87,62.5,99.21c-7.77,24.34-90.93,39.02-109.11,46.82"/>
		<path class="st1" d="M747.08,302.78L822,319.8"/>
		<path class="st3" d="M747.08,302.78L822,319.8"/>
		<path class="st1" d="M721.23,315.66l106.52,22.2"/>
		<path class="st3" d="M721.23,315.66l106.52,22.2"/>
		<path class="st1" d="M731.63,351.21l64.07,14.47"/>
		<path class="st3" d="M731.63,351.21l64.07,14.47"/>
		<path class="st1" d="M715.98,393.23l55.49,20.23"/>
		<path class="st3" d="M715.98,393.23l55.49,20.23"/>
		<path class="st1" d="M694.18,404l84.8,32.98"/>
		<path class="st3" d="M694.18,404l84.8,32.98"/>
		<path class="st1" d="M671.75,418.64l95.52,36.39"/>
		<path class="st3" d="M671.75,418.64l95.52,36.39"/>
		<path class="st1" d="M677.37,437.88l54.98,23.35"/>
		<path class="st3" d="M677.37,437.88l54.98,23.35"/>
		<path class="st1" d="M645.74,478.09l74.72,9.82"/>
		<path class="st3" d="M645.74,478.09l74.72,9.82"/>
		<path class="st1" d="M637.81,495.9l96.41,15.03"/>
		<path class="st3" d="M637.81,495.9l96.41,15.03"/>
		<path class="st1" d="M646.12,513.98l82.01,11.89"/>
		<path class="st3" d="M646.12,513.98l82.01,11.89"/>
		<path class="st1" d="M657.97,533.44l52.88,5.47"/>
		<path class="st3" d="M657.97,533.44l52.88,5.47"/>
		<path class="st1" d="M723.32,333.12l96.89,20.62"/>
		<path class="st3" d="M723.32,333.12l96.89,20.62"/>
	</g>
</g>
<g>
	<defs>
		<rect id="SVGID_00000078042148911648202460000017618374316327060100_" x="787.36" y="261.57" width="245.64" height="324.25"/>
	</defs>
	<clipPath id="SVGID_00000041295633960029525800000003251584023512978876_">
		<use xlink:href="#SVGID_00000078042148911648202460000017618374316327060100_"  style="overflow:visible;"/>
	</clipPath>
	<g style="clip-path:url(#SVGID_00000041295633960029525800000003251584023512978876_);">
		<path class="st1" d="M787.36,261.57h245.74v324.67H787.36V261.57z"/>
		<path class="st1" d="M993.5,287.65c-16.44,6.07-92.2,9.85-98.63,36.4s73.17,96.13,60.02,122.91
			c-13.15,26.78-124.51,15.96-138.92,37.76c-14.42,21.79,43.68,77.5,52.41,93"/>
		<path class="st2" d="M993.5,287.65c-16.44,6.07-92.2,9.85-98.63,36.4s73.17,96.13,60.02,122.91
			c-13.15,26.78-124.51,15.96-138.92,37.76c-14.42,21.79,43.68,77.5,52.41,93"/>
		<path class="st1" d="M962.55,277.79c5.9,12.38,54.33,50.57,35.43,74.29c-18.91,23.71-134.48,40.12-148.87,67.99
			c-14.4,27.87,70.27,74.87,62.5,99.21c-7.77,24.34-90.93,39.02-109.11,46.82"/>
		<path class="st2" d="M962.55,277.79c5.9,12.38,54.33,50.57,35.43,74.29c-18.91,23.71-134.48,40.12-148.87,67.99
			c-14.4,27.87,70.27,74.87,62.5,99.21c-7.77,24.34-90.93,39.02-109.11,46.82"/>
		<path class="st1" d="M923.08,304.78L998,321.8"/>
		<path class="st3" d="M923.08,304.78L998,321.8"/>
		<path class="st1" d="M897.23,317.66l106.52,22.2"/>
		<path class="st3" d="M897.23,317.66l106.52,22.2"/>
		<path class="st1" d="M907.63,353.21l64.07,14.47"/>
		<path class="st3" d="M907.63,353.21l64.07,14.47"/>
		<path class="st1" d="M891.98,395.23l55.49,20.23"/>
		<path class="st3" d="M891.98,395.23l55.49,20.23"/>
		<path class="st1" d="M870.18,406l84.8,32.98"/>
		<path class="st3" d="M870.18,406l84.8,32.98"/>
		<path class="st1" d="M847.75,420.64l95.52,36.39"/>
		<path class="st3" d="M847.75,420.64l95.52,36.39"/>
		<path class="st1" d="M853.37,439.88l54.98,23.35"/>
		<path class="st3" d="M853.37,439.88l54.98,23.35"/>
		<path class="st1" d="M821.74,480.09l74.72,9.82"/>
		<path class="st3" d="M821.74,480.09l74.72,9.82"/>
		<path class="st1" d="M813.81,497.9l96.41,15.03"/>
		<path class="st3" d="M813.81,497.9l96.41,15.03"/>
		<path class="st1" d="M822.12,515.98l82.01,11.89"/>
		<path class="st3" d="M822.12,515.98l82.01,11.89"/>
		<path class="st1" d="M833.97,535.44l52.88,5.47"/>
		<path class="st3" d="M833.97,535.44l52.88,5.47"/>
		<path class="st1" d="M899.32,335.12l96.89,20.62"/>
		<path class="st3" d="M899.32,335.12l96.89,20.62"/>
	</g>
</g>
<g>
	<defs>
		<rect id="SVGID_00000158718220749449234760000004103134787190671233_" x="963.36" y="259.57" width="245.64" height="324.25"/>
	</defs>
	<clipPath id="SVGID_00000014623147341546069870000004540956724496058292_">
		<use xlink:href="#SVGID_00000158718220749449234760000004103134787190671233_"  style="overflow:visible;"/>
	</clipPath>
	<g style="clip-path:url(#SVGID_00000014623147341546069870000004540956724496058292_);">
		<path class="st1" d="M963.36,259.57h245.74v324.67H963.36V259.57z"/>
		<path class="st1" d="M1169.5,285.65c-16.44,6.07-92.2,9.85-98.63,36.4s73.17,96.13,60.02,122.91
			c-13.15,26.78-124.51,15.96-138.92,37.76c-14.42,21.79,43.68,77.5,52.41,93"/>
		<path class="st2" d="M1169.5,285.65c-16.44,6.07-92.2,9.85-98.63,36.4s73.17,96.13,60.02,122.91
			c-13.15,26.78-124.51,15.96-138.92,37.76c-14.42,21.79,43.68,77.5,52.41,93"/>
		<path class="st1" d="M1138.55,275.79c5.9,12.38,54.33,50.57,35.43,74.29s-134.48,40.12-148.87,67.99
			c-14.4,27.87,70.27,74.87,62.5,99.21c-7.77,24.34-90.93,39.02-109.11,46.82"/>
		<path class="st2" d="M1138.55,275.79c5.9,12.38,54.33,50.57,35.43,74.29s-134.48,40.12-148.87,67.99
			c-14.4,27.87,70.27,74.87,62.5,99.21c-7.77,24.34-90.93,39.02-109.11,46.82"/>
		<path class="st1" d="M1099.08,302.78L1174,319.8"/>
		<path class="st3" d="M1099.08,302.78L1174,319.8"/>
		<path class="st1" d="M1073.23,315.66l106.52,22.2"/>
		<path class="st3" d="M1073.23,315.66l106.52,22.2"/>
		<path class="st1" d="M1083.63,351.21l64.07,14.47"/>
		<path class="st3" d="M1083.63,351.21l64.07,14.47"/>
		<path class="st1" d="M1067.98,393.23l55.49,20.23"/>
		<path class="st3" d="M1067.98,393.23l55.49,20.23"/>
		<path class="st1" d="M1046.18,404l84.8,32.98"/>
		<path class="st3" d="M1046.18,404l84.8,32.98"/>
		<path class="st1" d="M1023.75,418.64l95.52,36.39"/>
		<path class="st3" d="M1023.75,418.64l95.52,36.39"/>
		<path class="st1" d="M1029.37,437.88l54.98,23.35"/>
		<path class="st3" d="M1029.37,437.88l54.98,23.35"/>
		<path class="st1" d="M997.74,478.09l74.72,9.82"/>
		<path class="st3" d="M997.74,478.09l74.72,9.82"/>
		<path class="st1" d="M989.81,495.9l96.41,15.03"/>
		<path class="st3" d="M989.81,495.9l96.41,15.03"/>
		<path class="st1" d="M998.12,513.98l82.01,11.89"/>
		<path class="st3" d="M998.12,513.98l82.01,11.89"/>
		<path class="st1" d="M1009.97,533.44l52.88,5.47"/>
		<path class="st3" d="M1009.97,533.44l52.88,5.47"/>
		<path class="st1" d="M1075.32,333.12l96.89,20.62"/>
		<path class="st3" d="M1075.32,333.12l96.89,20.62"/>
	</g>
</g>
<g>
	<defs>
		<rect id="SVGID_00000151511168536739198620000018139846199151114661_" x="1130.36" y="259.57" width="245.64" height="324.25"/>
	</defs>
	<clipPath id="SVGID_00000165914554621795354690000008196156855875615130_">
		<use xlink:href="#SVGID_00000151511168536739198620000018139846199151114661_"  style="overflow:visible;"/>
	</clipPath>
	<g style="clip-path:url(#SVGID_00000165914554621795354690000008196156855875615130_);">
		<path class="st1" d="M1130.36,259.57h245.74v324.67h-245.74V259.57z"/>
		<path class="st1" d="M1336.5,285.65c-16.44,6.07-92.2,9.85-98.63,36.4s73.17,96.13,60.02,122.91
			c-13.15,26.78-124.51,15.96-138.92,37.76c-14.42,21.79,43.68,77.5,52.41,93"/>
		<path class="st2" d="M1336.5,285.65c-16.44,6.07-92.2,9.85-98.63,36.4s73.17,96.13,60.02,122.91
			c-13.15,26.78-124.51,15.96-138.92,37.76c-14.42,21.79,43.68,77.5,52.41,93"/>
		<path class="st1" d="M1305.55,275.79c5.9,12.38,54.33,50.57,35.43,74.29s-134.48,40.12-148.87,67.99
			c-14.4,27.87,70.27,74.87,62.5,99.21c-7.77,24.34-90.93,39.02-109.11,46.82"/>
		<path class="st2" d="M1305.55,275.79c5.9,12.38,54.33,50.57,35.43,74.29s-134.48,40.12-148.87,67.99
			c-14.4,27.87,70.27,74.87,62.5,99.21c-7.77,24.34-90.93,39.02-109.11,46.82"/>
		<path class="st1" d="M1266.08,302.78L1341,319.8"/>
		<path class="st3" d="M1266.08,302.78L1341,319.8"/>
		<path class="st1" d="M1240.23,315.66l106.52,22.2"/>
		<path class="st3" d="M1240.23,315.66l106.52,22.2"/>
		<path class="st1" d="M1250.63,351.21l64.07,14.47"/>
		<path class="st3" d="M1250.63,351.21l64.07,14.47"/>
		<path class="st1" d="M1234.98,393.23l55.49,20.23"/>
		<path class="st3" d="M1234.98,393.23l55.49,20.23"/>
		<path class="st1" d="M1213.18,404l84.8,32.98"/>
		<path class="st3" d="M1213.18,404l84.8,32.98"/>
		<path class="st1" d="M1190.75,418.64l95.52,36.39"/>
		<path class="st3" d="M1190.75,418.64l95.52,36.39"/>
		<path class="st1" d="M1196.37,437.88l54.98,23.35"/>
		<path class="st3" d="M1196.37,437.88l54.98,23.35"/>
		<path class="st1" d="M1164.74,478.09l74.72,9.82"/>
		<path class="st3" d="M1164.74,478.09l74.72,9.82"/>
		<path class="st1" d="M1156.81,495.9l96.41,15.03"/>
		<path class="st3" d="M1156.81,495.9l96.41,15.03"/>
		<path class="st1" d="M1165.12,513.98l82.01,11.89"/>
		<path class="st3" d="M1165.12,513.98l82.01,11.89"/>
		<path class="st1" d="M1176.97,533.44l52.88,5.47"/>
		<path class="st3" d="M1176.97,533.44l52.88,5.47"/>
		<path class="st1" d="M1242.32,333.12l96.89,20.62"/>
		<path class="st3" d="M1242.32,333.12l96.89,20.62"/>
	</g>
</g>
<g>
	<defs>
		<rect id="SVGID_00000071547805639192193070000000525342792856075169_" x="-34.09" y="529.77" width="245.64" height="324.25"/>
	</defs>
	<clipPath id="SVGID_00000166639396055252067400000011555334548132230797_">
		<use xlink:href="#SVGID_00000071547805639192193070000000525342792856075169_"  style="overflow:visible;"/>
	</clipPath>
	<g style="clip-path:url(#SVGID_00000166639396055252067400000011555334548132230797_);">
		<path class="st1" d="M-34.09,529.77h245.74v324.67H-34.09V529.77z"/>
		<path class="st1" d="M172.05,555.85c-16.44,6.07-92.2,9.85-98.63,36.4c-6.44,26.55,73.17,96.13,60.02,122.91
			C120.29,741.94,8.93,731.12-5.48,752.91s43.68,77.5,52.41,93"/>
		<path class="st2" d="M172.05,555.85c-16.44,6.07-92.2,9.85-98.63,36.4c-6.44,26.55,73.17,96.13,60.02,122.91
			C120.29,741.94,8.93,731.12-5.48,752.91s43.68,77.5,52.41,93"/>
		<path class="st1" d="M141.1,546c5.9,12.38,54.33,50.57,35.43,74.29C157.61,644,42.04,660.41,27.65,688.27s70.27,74.87,62.5,99.21
			c-7.77,24.34-90.93,39.02-109.11,46.82"/>
		<path class="st2" d="M141.1,546c5.9,12.38,54.33,50.57,35.43,74.29C157.61,644,42.04,660.41,27.65,688.27s70.27,74.87,62.5,99.21
			c-7.77,24.34-90.93,39.02-109.11,46.82"/>
		<path class="st1" d="M101.63,572.98L176.55,590"/>
		<path class="st3" d="M101.63,572.98L176.55,590"/>
		<path class="st1" d="M75.78,585.87l106.52,22.2"/>
		<path class="st3" d="M75.78,585.87l106.52,22.2"/>
		<path class="st1" d="M86.18,621.41l64.07,14.47"/>
		<path class="st3" d="M86.18,621.41l64.07,14.47"/>
		<path class="st1" d="M70.53,663.44l55.49,20.23"/>
		<path class="st3" d="M70.53,663.44l55.49,20.23"/>
		<path class="st1" d="M48.73,674.21l84.8,32.98"/>
		<path class="st3" d="M48.73,674.21l84.8,32.98"/>
		<path class="st1" d="M26.3,688.84l95.52,36.39"/>
		<path class="st3" d="M26.3,688.84l95.52,36.39"/>
		<path class="st1" d="M31.92,708.08l54.98,23.35"/>
		<path class="st3" d="M31.92,708.08l54.98,23.35"/>
		<path class="st1" d="M0.29,748.29l74.72,9.82"/>
		<path class="st3" d="M0.29,748.29l74.72,9.82"/>
		<path class="st1" d="M-7.64,766.1l96.41,15.03"/>
		<path class="st3" d="M-7.64,766.1l96.41,15.03"/>
		<path class="st1" d="M0.67,784.18l82.01,11.89"/>
		<path class="st3" d="M0.67,784.18l82.01,11.89"/>
		<path class="st1" d="M12.52,803.65l52.88,5.47"/>
		<path class="st3" d="M12.52,803.65l52.88,5.47"/>
		<path class="st1" d="M77.87,603.33l96.89,20.62"/>
		<path class="st3" d="M77.87,603.33l96.89,20.62"/>
	</g>
</g>
<g>
	<defs>
		<rect id="SVGID_00000003082661031096677620000003121692078069843124_" x="119.36" y="532.57" width="245.64" height="324.25"/>
	</defs>
	<clipPath id="SVGID_00000000919012660859568360000017087186531000760249_">
		<use xlink:href="#SVGID_00000003082661031096677620000003121692078069843124_"  style="overflow:visible;"/>
	</clipPath>
	<g style="clip-path:url(#SVGID_00000000919012660859568360000017087186531000760249_);">
		<path class="st1" d="M119.36,532.57h245.74v324.67H119.36V532.57z"/>
		<path class="st1" d="M325.5,558.65c-16.44,6.07-92.2,9.85-98.63,36.4c-6.44,26.55,73.17,96.13,60.02,122.91
			c-13.15,26.78-124.51,15.96-138.92,37.76c-14.42,21.79,43.68,77.5,52.41,93"/>
		<path class="st2" d="M325.5,558.65c-16.44,6.07-92.2,9.85-98.63,36.4c-6.44,26.55,73.17,96.13,60.02,122.91
			c-13.15,26.78-124.51,15.96-138.92,37.76c-14.42,21.79,43.68,77.5,52.41,93"/>
		<path class="st1" d="M294.55,548.79c5.9,12.38,54.33,50.57,35.43,74.29c-18.91,23.71-134.48,40.12-148.87,67.99
			c-14.4,27.87,70.27,74.87,62.5,99.21c-7.77,24.34-90.93,39.02-109.11,46.82"/>
		<path class="st2" d="M294.55,548.79c5.9,12.38,54.33,50.57,35.43,74.29c-18.91,23.71-134.48,40.12-148.87,67.99
			c-14.4,27.87,70.27,74.87,62.5,99.21c-7.77,24.34-90.93,39.02-109.11,46.82"/>
		<path class="st1" d="M255.08,575.78L330,592.8"/>
		<path class="st3" d="M255.08,575.78L330,592.8"/>
		<path class="st1" d="M229.23,588.66l106.52,22.2"/>
		<path class="st3" d="M229.23,588.66l106.52,22.2"/>
		<path class="st1" d="M239.63,624.21l64.07,14.47"/>
		<path class="st3" d="M239.63,624.21l64.07,14.47"/>
		<path class="st1" d="M223.98,666.23l55.49,20.23"/>
		<path class="st3" d="M223.98,666.23l55.49,20.23"/>
		<path class="st1" d="M202.18,677l84.8,32.98"/>
		<path class="st3" d="M202.18,677l84.8,32.98"/>
		<path class="st1" d="M179.75,691.64l95.52,36.39"/>
		<path class="st3" d="M179.75,691.64l95.52,36.39"/>
		<path class="st1" d="M185.37,710.88l54.98,23.35"/>
		<path class="st3" d="M185.37,710.88l54.98,23.35"/>
		<path class="st1" d="M153.74,751.09l74.72,9.82"/>
		<path class="st3" d="M153.74,751.09l74.72,9.82"/>
		<path class="st1" d="M145.81,768.9l96.41,15.03"/>
		<path class="st3" d="M145.81,768.9l96.41,15.03"/>
		<path class="st1" d="M154.12,786.98l82.01,11.89"/>
		<path class="st3" d="M154.12,786.98l82.01,11.89"/>
		<path class="st1" d="M165.97,806.44l52.88,5.47"/>
		<path class="st3" d="M165.97,806.44l52.88,5.47"/>
		<path class="st1" d="M231.32,606.12l96.89,20.62"/>
		<path class="st3" d="M231.32,606.12l96.89,20.62"/>
	</g>
</g>
<g>
	<defs>
		<rect id="SVGID_00000009583811763642600590000004921122806946454713_" x="286.36" y="532.57" width="245.64" height="324.25"/>
	</defs>
	<clipPath id="SVGID_00000081631486051139457600000011736195357275177896_">
		<use xlink:href="#SVGID_00000009583811763642600590000004921122806946454713_"  style="overflow:visible;"/>
	</clipPath>
	<g style="clip-path:url(#SVGID_00000081631486051139457600000011736195357275177896_);">
		<path class="st1" d="M286.36,532.57h245.74v324.67H286.36V532.57z"/>
		<path class="st1" d="M492.5,558.65c-16.44,6.07-92.2,9.85-98.63,36.4c-6.44,26.55,73.17,96.13,60.02,122.91
			c-13.15,26.78-124.51,15.96-138.92,37.76c-14.42,21.79,43.68,77.5,52.41,93"/>
		<path class="st2" d="M492.5,558.65c-16.44,6.07-92.2,9.85-98.63,36.4c-6.44,26.55,73.17,96.13,60.02,122.91
			c-13.15,26.78-124.51,15.96-138.92,37.76c-14.42,21.79,43.68,77.5,52.41,93"/>
		<path class="st1" d="M461.55,548.79c5.9,12.38,54.33,50.57,35.43,74.29c-18.91,23.71-134.48,40.12-148.87,67.99
			s70.27,74.87,62.5,99.21c-7.77,24.34-90.93,39.02-109.11,46.82"/>
		<path class="st2" d="M461.55,548.79c5.9,12.38,54.33,50.57,35.43,74.29c-18.91,23.71-134.48,40.12-148.87,67.99
			s70.27,74.87,62.5,99.21c-7.77,24.34-90.93,39.02-109.11,46.82"/>
		<path class="st1" d="M422.08,575.78L497,592.8"/>
		<path class="st3" d="M422.08,575.78L497,592.8"/>
		<path class="st1" d="M396.23,588.66l106.52,22.2"/>
		<path class="st3" d="M396.23,588.66l106.52,22.2"/>
		<path class="st1" d="M406.63,624.21l64.07,14.47"/>
		<path class="st3" d="M406.63,624.21l64.07,14.47"/>
		<path class="st1" d="M390.98,666.23l55.49,20.23"/>
		<path class="st3" d="M390.98,666.23l55.49,20.23"/>
		<path class="st1" d="M369.18,677l84.8,32.98"/>
		<path class="st3" d="M369.18,677l84.8,32.98"/>
		<path class="st1" d="M346.75,691.64l95.52,36.39"/>
		<path class="st3" d="M346.75,691.64l95.52,36.39"/>
		<path class="st1" d="M352.37,710.88l54.98,23.35"/>
		<path class="st3" d="M352.37,710.88l54.98,23.35"/>
		<path class="st1" d="M320.74,751.09l74.72,9.82"/>
		<path class="st3" d="M320.74,751.09l74.72,9.82"/>
		<path class="st1" d="M312.81,768.9l96.41,15.03"/>
		<path class="st3" d="M312.81,768.9l96.41,15.03"/>
		<path class="st1" d="M321.12,786.98l82.01,11.89"/>
		<path class="st3" d="M321.12,786.98l82.01,11.89"/>
		<path class="st1" d="M332.97,806.44l52.88,5.47"/>
		<path class="st3" d="M332.97,806.44l52.88,5.47"/>
		<path class="st1" d="M398.32,606.12l96.89,20.62"/>
		<path class="st3" d="M398.32,606.12l96.89,20.62"/>
	</g>
</g>
<g>
	<defs>
		<rect id="SVGID_00000100382030194834558980000011008645698934128059_" x="447.36" y="532.57" width="245.64" height="324.25"/>
	</defs>
	<clipPath id="SVGID_00000036931202499731415480000001396684194867038592_">
		<use xlink:href="#SVGID_00000100382030194834558980000011008645698934128059_"  style="overflow:visible;"/>
	</clipPath>
	<g style="clip-path:url(#SVGID_00000036931202499731415480000001396684194867038592_);">
		<path class="st1" d="M447.36,532.57h245.74v324.67H447.36V532.57z"/>
		<path class="st1" d="M653.5,558.65c-16.44,6.07-92.2,9.85-98.63,36.4c-6.44,26.55,73.17,96.13,60.02,122.91
			c-13.15,26.78-124.5,15.96-138.92,37.76c-14.42,21.79,43.68,77.5,52.41,93"/>
		<path class="st2" d="M653.5,558.65c-16.44,6.07-92.2,9.85-98.63,36.4c-6.44,26.55,73.17,96.13,60.02,122.91
			c-13.15,26.78-124.5,15.96-138.92,37.76c-14.42,21.79,43.68,77.5,52.41,93"/>
		<path class="st1" d="M622.55,548.79c5.9,12.38,54.33,50.57,35.43,74.29c-18.91,23.71-134.48,40.12-148.87,67.99
			c-14.4,27.87,70.27,74.87,62.5,99.21c-7.77,24.34-90.93,39.02-109.11,46.82"/>
		<path class="st2" d="M622.55,548.79c5.9,12.38,54.33,50.57,35.43,74.29c-18.91,23.71-134.48,40.12-148.87,67.99
			c-14.4,27.87,70.27,74.87,62.5,99.21c-7.77,24.34-90.93,39.02-109.11,46.82"/>
		<path class="st1" d="M583.08,575.78L658,592.8"/>
		<path class="st3" d="M583.08,575.78L658,592.8"/>
		<path class="st1" d="M557.23,588.66l106.52,22.2"/>
		<path class="st3" d="M557.23,588.66l106.52,22.2"/>
		<path class="st1" d="M567.63,624.21l64.07,14.47"/>
		<path class="st3" d="M567.63,624.21l64.07,14.47"/>
		<path class="st1" d="M551.98,666.23l55.49,20.23"/>
		<path class="st3" d="M551.98,666.23l55.49,20.23"/>
		<path class="st1" d="M530.18,677l84.8,32.98"/>
		<path class="st3" d="M530.18,677l84.8,32.98"/>
		<path class="st1" d="M507.75,691.64l95.52,36.39"/>
		<path class="st3" d="M507.75,691.64l95.52,36.39"/>
		<path class="st1" d="M513.37,710.88l54.98,23.35"/>
		<path class="st3" d="M513.37,710.88l54.98,23.35"/>
		<path class="st1" d="M481.74,751.09l74.72,9.82"/>
		<path class="st3" d="M481.74,751.09l74.72,9.82"/>
		<path class="st1" d="M473.81,768.9l96.41,15.03"/>
		<path class="st3" d="M473.81,768.9l96.41,15.03"/>
		<path class="st1" d="M482.12,786.98l82.01,11.89"/>
		<path class="st3" d="M482.12,786.98l82.01,11.89"/>
		<path class="st1" d="M493.97,806.44l52.88,5.47"/>
		<path class="st3" d="M493.97,806.44l52.88,5.47"/>
		<path class="st1" d="M559.32,606.12l96.89,20.62"/>
		<path class="st3" d="M559.32,606.12l96.89,20.62"/>
	</g>
</g>
<g>
	<defs>
		<rect id="SVGID_00000052818168569464855420000017442578786570891433_" x="603.36" y="537.57" width="245.64" height="324.25"/>
	</defs>
	<clipPath id="SVGID_00000024715597416161802620000007071077033113622947_">
		<use xlink:href="#SVGID_00000052818168569464855420000017442578786570891433_"  style="overflow:visible;"/>
	</clipPath>
	<g style="clip-path:url(#SVGID_00000024715597416161802620000007071077033113622947_);">
		<path class="st1" d="M603.36,537.57h245.74v324.67H603.36V537.57z"/>
		<path class="st1" d="M809.5,563.65c-16.44,6.07-92.2,9.85-98.63,36.4c-6.44,26.55,73.17,96.13,60.02,122.91
			c-13.15,26.78-124.51,15.96-138.92,37.76c-14.42,21.79,43.68,77.5,52.41,93"/>
		<path class="st2" d="M809.5,563.65c-16.44,6.07-92.2,9.85-98.63,36.4c-6.44,26.55,73.17,96.13,60.02,122.91
			c-13.15,26.78-124.51,15.96-138.92,37.76c-14.42,21.79,43.68,77.5,52.41,93"/>
		<path class="st1" d="M778.55,553.79c5.9,12.38,54.33,50.57,35.43,74.29c-18.91,23.71-134.48,40.12-148.87,67.99
			c-14.4,27.87,70.27,74.87,62.5,99.21c-7.77,24.34-90.93,39.02-109.11,46.82"/>
		<path class="st2" d="M778.55,553.79c5.9,12.38,54.33,50.57,35.43,74.29c-18.91,23.71-134.48,40.12-148.87,67.99
			c-14.4,27.87,70.27,74.87,62.5,99.21c-7.77,24.34-90.93,39.02-109.11,46.82"/>
		<path class="st1" d="M739.08,580.78L814,597.8"/>
		<path class="st3" d="M739.08,580.78L814,597.8"/>
		<path class="st1" d="M713.23,593.66l106.52,22.2"/>
		<path class="st3" d="M713.23,593.66l106.52,22.2"/>
		<path class="st1" d="M723.63,629.21l64.07,14.47"/>
		<path class="st3" d="M723.63,629.21l64.07,14.47"/>
		<path class="st1" d="M707.98,671.23l55.49,20.23"/>
		<path class="st3" d="M707.98,671.23l55.49,20.23"/>
		<path class="st1" d="M686.18,682l84.8,32.98"/>
		<path class="st3" d="M686.18,682l84.8,32.98"/>
		<path class="st1" d="M663.75,696.64l95.52,36.39"/>
		<path class="st3" d="M663.75,696.64l95.52,36.39"/>
		<path class="st1" d="M669.37,715.88l54.98,23.35"/>
		<path class="st3" d="M669.37,715.88l54.98,23.35"/>
		<path class="st1" d="M637.74,756.09l74.72,9.82"/>
		<path class="st3" d="M637.74,756.09l74.72,9.82"/>
		<path class="st1" d="M629.81,773.9l96.41,15.03"/>
		<path class="st3" d="M629.81,773.9l96.41,15.03"/>
		<path class="st1" d="M638.12,791.98l82.01,11.89"/>
		<path class="st3" d="M638.12,791.98l82.01,11.89"/>
		<path class="st1" d="M649.97,811.44l52.88,5.47"/>
		<path class="st3" d="M649.97,811.44l52.88,5.47"/>
		<path class="st1" d="M715.32,611.12l96.89,20.62"/>
		<path class="st3" d="M715.32,611.12l96.89,20.62"/>
	</g>
</g>
<g>
	<defs>
		<rect id="SVGID_00000062193349884555538750000002817464619305569929_" x="775.36" y="535.57" width="245.64" height="324.25"/>
	</defs>
	<clipPath id="SVGID_00000031888501038722854120000009286926599258301600_">
		<use xlink:href="#SVGID_00000062193349884555538750000002817464619305569929_"  style="overflow:visible;"/>
	</clipPath>
	<g style="clip-path:url(#SVGID_00000031888501038722854120000009286926599258301600_);">
		<path class="st1" d="M775.36,535.57h245.74v324.67H775.36V535.57z"/>
		<path class="st1" d="M981.5,561.65c-16.44,6.07-92.2,9.85-98.63,36.4c-6.44,26.55,73.17,96.13,60.02,122.91
			c-13.15,26.78-124.51,15.96-138.92,37.76c-14.42,21.79,43.68,77.5,52.41,93"/>
		<path class="st2" d="M981.5,561.65c-16.44,6.07-92.2,9.85-98.63,36.4c-6.44,26.55,73.17,96.13,60.02,122.91
			c-13.15,26.78-124.51,15.96-138.92,37.76c-14.42,21.79,43.68,77.5,52.41,93"/>
		<path class="st1" d="M950.55,551.79c5.9,12.38,54.33,50.57,35.43,74.29c-18.91,23.71-134.48,40.12-148.87,67.99
			c-14.4,27.87,70.27,74.87,62.5,99.21c-7.77,24.34-90.93,39.02-109.11,46.82"/>
		<path class="st2" d="M950.55,551.79c5.9,12.38,54.33,50.57,35.43,74.29c-18.91,23.71-134.48,40.12-148.87,67.99
			c-14.4,27.87,70.27,74.87,62.5,99.21c-7.77,24.34-90.93,39.02-109.11,46.82"/>
		<path class="st1" d="M911.08,578.78L986,595.8"/>
		<path class="st3" d="M911.08,578.78L986,595.8"/>
		<path class="st1" d="M885.23,591.66l106.52,22.2"/>
		<path class="st3" d="M885.23,591.66l106.52,22.2"/>
		<path class="st1" d="M895.63,627.21l64.07,14.47"/>
		<path class="st3" d="M895.63,627.21l64.07,14.47"/>
		<path class="st1" d="M879.98,669.23l55.49,20.23"/>
		<path class="st3" d="M879.98,669.23l55.49,20.23"/>
		<path class="st1" d="M858.18,680l84.8,32.98"/>
		<path class="st3" d="M858.18,680l84.8,32.98"/>
		<path class="st1" d="M835.75,694.64l95.52,36.39"/>
		<path class="st3" d="M835.75,694.64l95.52,36.39"/>
		<path class="st1" d="M841.37,713.88l54.98,23.35"/>
		<path class="st3" d="M841.37,713.88l54.98,23.35"/>
		<path class="st1" d="M809.74,754.09l74.72,9.82"/>
		<path class="st3" d="M809.74,754.09l74.72,9.82"/>
		<path class="st1" d="M801.81,771.9l96.41,15.03"/>
		<path class="st3" d="M801.81,771.9l96.41,15.03"/>
		<path class="st1" d="M810.12,789.98l82.01,11.89"/>
		<path class="st3" d="M810.12,789.98l82.01,11.89"/>
		<path class="st1" d="M821.97,809.44l52.88,5.47"/>
		<path class="st3" d="M821.97,809.44l52.88,5.47"/>
		<path class="st1" d="M887.32,609.12l96.89,20.62"/>
		<path class="st3" d="M887.32,609.12l96.89,20.62"/>
	</g>
</g>
<g>
	<defs>
		<rect id="SVGID_00000003810451779717630790000010395381817440225696_" x="955.36" y="532.57" width="245.64" height="324.25"/>
	</defs>
	<clipPath id="SVGID_00000093863757456141071280000004454628700260410559_">
		<use xlink:href="#SVGID_00000003810451779717630790000010395381817440225696_"  style="overflow:visible;"/>
	</clipPath>
	<g style="clip-path:url(#SVGID_00000093863757456141071280000004454628700260410559_);">
		<path class="st1" d="M955.36,532.57h245.74v324.67H955.36V532.57z"/>
		<path class="st1" d="M1161.5,558.65c-16.44,6.07-92.2,9.85-98.63,36.4c-6.44,26.55,73.17,96.13,60.02,122.91
			c-13.15,26.78-124.51,15.96-138.92,37.76c-14.42,21.79,43.68,77.5,52.41,93"/>
		<path class="st2" d="M1161.5,558.65c-16.44,6.07-92.2,9.85-98.63,36.4c-6.44,26.55,73.17,96.13,60.02,122.91
			c-13.15,26.78-124.51,15.96-138.92,37.76c-14.42,21.79,43.68,77.5,52.41,93"/>
		<path class="st1" d="M1130.55,548.79c5.9,12.38,54.33,50.57,35.43,74.29c-18.91,23.71-134.48,40.12-148.87,67.99
			c-14.4,27.87,70.27,74.87,62.5,99.21c-7.77,24.34-90.93,39.02-109.11,46.82"/>
		<path class="st2" d="M1130.55,548.79c5.9,12.38,54.33,50.57,35.43,74.29c-18.91,23.71-134.48,40.12-148.87,67.99
			c-14.4,27.87,70.27,74.87,62.5,99.21c-7.77,24.34-90.93,39.02-109.11,46.82"/>
		<path class="st1" d="M1091.08,575.78L1166,592.8"/>
		<path class="st3" d="M1091.08,575.78L1166,592.8"/>
		<path class="st1" d="M1065.23,588.66l106.52,22.2"/>
		<path class="st3" d="M1065.23,588.66l106.52,22.2"/>
		<path class="st1" d="M1075.63,624.21l64.07,14.47"/>
		<path class="st3" d="M1075.63,624.21l64.07,14.47"/>
		<path class="st1" d="M1059.98,666.23l55.49,20.23"/>
		<path class="st3" d="M1059.98,666.23l55.49,20.23"/>
		<path class="st1" d="M1038.18,677l84.8,32.98"/>
		<path class="st3" d="M1038.18,677l84.8,32.98"/>
		<path class="st1" d="M1015.75,691.64l95.52,36.39"/>
		<path class="st3" d="M1015.75,691.64l95.52,36.39"/>
		<path class="st1" d="M1021.37,710.88l54.98,23.35"/>
		<path class="st3" d="M1021.37,710.88l54.98,23.35"/>
		<path class="st1" d="M989.74,751.09l74.72,9.82"/>
		<path class="st3" d="M989.74,751.09l74.72,9.82"/>
		<path class="st1" d="M981.81,768.9l96.41,15.03"/>
		<path class="st3" d="M981.81,768.9l96.41,15.03"/>
		<path class="st1" d="M990.12,786.98l82.01,11.89"/>
		<path class="st3" d="M990.12,786.98l82.01,11.89"/>
		<path class="st1" d="M1001.97,806.44l52.88,5.47"/>
		<path class="st3" d="M1001.97,806.44l52.88,5.47"/>
		<path class="st1" d="M1067.32,606.12l96.89,20.62"/>
		<path class="st3" d="M1067.32,606.12l96.89,20.62"/>
	</g>
</g>
<g>
	<defs>
		<rect id="SVGID_00000165222551453573429260000005255284752738954116_" x="1122.36" y="532.57" width="245.64" height="324.25"/>
	</defs>
	<clipPath id="SVGID_00000080925312509767921820000014162954593104271529_">
		<use xlink:href="#SVGID_00000165222551453573429260000005255284752738954116_"  style="overflow:visible;"/>
	</clipPath>
	<g style="clip-path:url(#SVGID_00000080925312509767921820000014162954593104271529_);">
		<path class="st1" d="M1122.36,532.57h245.74v324.67h-245.74V532.57z"/>
		<path class="st1" d="M1328.5,558.65c-16.44,6.07-92.2,9.85-98.63,36.4c-6.44,26.55,73.17,96.13,60.02,122.91
			c-13.15,26.78-124.51,15.96-138.92,37.76c-14.42,21.79,43.68,77.5,52.41,93"/>
		<path class="st2" d="M1328.5,558.65c-16.44,6.07-92.2,9.85-98.63,36.4c-6.44,26.55,73.17,96.13,60.02,122.91
			c-13.15,26.78-124.51,15.96-138.92,37.76c-14.42,21.79,43.68,77.5,52.41,93"/>
		<path class="st1" d="M1297.55,548.79c5.9,12.38,54.33,50.57,35.43,74.29c-18.91,23.71-134.48,40.12-148.87,67.99
			c-14.4,27.87,70.27,74.87,62.5,99.21c-7.77,24.34-90.93,39.02-109.11,46.82"/>
		<path class="st2" d="M1297.55,548.79c5.9,12.38,54.33,50.57,35.43,74.29c-18.91,23.71-134.48,40.12-148.87,67.99
			c-14.4,27.87,70.27,74.87,62.5,99.21c-7.77,24.34-90.93,39.02-109.11,46.82"/>
		<path class="st1" d="M1258.08,575.78L1333,592.8"/>
		<path class="st3" d="M1258.08,575.78L1333,592.8"/>
		<path class="st1" d="M1232.23,588.66l106.52,22.2"/>
		<path class="st3" d="M1232.23,588.66l106.52,22.2"/>
		<path class="st1" d="M1242.63,624.21l64.07,14.47"/>
		<path class="st3" d="M1242.63,624.21l64.07,14.47"/>
		<path class="st1" d="M1226.98,666.23l55.49,20.23"/>
		<path class="st3" d="M1226.98,666.23l55.49,20.23"/>
		<path class="st1" d="M1205.18,677l84.8,32.98"/>
		<path class="st3" d="M1205.18,677l84.8,32.98"/>
		<path class="st1" d="M1182.75,691.64l95.52,36.39"/>
		<path class="st3" d="M1182.75,691.64l95.52,36.39"/>
		<path class="st1" d="M1188.37,710.88l54.98,23.35"/>
		<path class="st3" d="M1188.37,710.88l54.98,23.35"/>
		<path class="st1" d="M1156.74,751.09l74.72,9.82"/>
		<path class="st3" d="M1156.74,751.09l74.72,9.82"/>
		<path class="st1" d="M1148.81,768.9l96.41,15.03"/>
		<path class="st3" d="M1148.81,768.9l96.41,15.03"/>
		<path class="st1" d="M1157.12,786.98l82.01,11.89"/>
		<path class="st3" d="M1157.12,786.98l82.01,11.89"/>
		<path class="st1" d="M1168.97,806.44l52.88,5.47"/>
		<path class="st3" d="M1168.97,806.44l52.88,5.47"/>
		<path class="st1" d="M1234.32,606.12l96.89,20.62"/>
		<path class="st3" d="M1234.32,606.12l96.89,20.62"/>
	</g>
</g>
</svg>
